<svg xmlns="http://www.w3.org/2000/svg" width="534.986" height="369.971" viewBox="0 0 534.986 369.971">
  <g id="Group_12" data-name="Group 12" transform="translate(0)">
    <path id="Path_1" data-name="Path 1" d="M198.084,393.668c-9.9,8.1,6.3,79.235,6.3,79.235s3.6,108.5,11.255,113.45,24.761-.45,31.514-1.35.9-67.98-9-92.741-2.251-60.777-2.251-60.777l53.574,10.355S257.06,469.3,258.411,475.154s36.016,25.661,42.319,26.562,18.458-36.016,29.263-61.227S256.16,399.07,256.16,399.07l-11.705-22.06S207.988,385.564,198.084,393.668Z" transform="translate(-149.733 -232.085)" fill="#2f2e41"/>
    <path id="Path_2" data-name="Path 2" d="M248.516,747.92s-3.267,11.434,0,11.434,9.256,3.267,18.512,2.178,6.534-12.523,0-14.157-4.9-14.7-4.9-14.7c-2.178-4.356-12.523,1.089-12.523,1.089Z" transform="translate(-173.277 -391.784)" fill="#2f2e41"/>
    <path id="Path_3" data-name="Path 3" d="M331.425,584.145s-5.6,10.488-2.411,11.177,8.359,5.145,17.637,6.033,9.028-10.864,2.985-13.838-1.69-15.4-1.69-15.4c-1.21-4.717-12.471-1.576-12.471-1.576Z" transform="translate(-209.806 -318.933)" fill="#2f2e41"/>
    <path id="Path_4" data-name="Path 4" d="M209.2,229.448c.9,1.8-3.151,24.311-3.151,24.311l3.6,6.3s20.709-8.1,17.558-9.454-2.7-18.008-2.7-18.008S208.3,227.647,209.2,229.448Z" transform="translate(-154.773 -165.332)" fill="#ffb9b9"/>
    <circle id="Ellipse_1" data-name="Ellipse 1" cx="27.603" cy="27.603" r="27.603" transform="translate(34.62 15.847)" fill="#2f2e41"/>
    <circle id="Ellipse_2" data-name="Ellipse 2" cx="11.422" cy="11.422" r="11.422" transform="translate(48.898 6.187)" fill="#2f2e41"/>
    <path id="Path_5" data-name="Path 5" d="M231.631,135.735a11.554,11.554,0,0,0,1.19.062,11.422,11.422,0,0,0,0-22.844,11.55,11.55,0,0,0-1.19.062,11.423,11.423,0,0,1,0,22.721Z" transform="translate(-166.314 -112.953)" fill="#2f2e41"/>
    <circle id="Ellipse_3" data-name="Ellipse 3" cx="18.908" cy="18.908" r="18.908" transform="translate(44.074 38.004)" fill="#ffb9b9"/>
    <path id="Path_6" data-name="Path 6" d="M164.8,265.018c-5.853,1.351-15.757,15.757-15.757,15.757L164.8,296.532s11.255,42.319,12.606,44.12c8.848,11.8,48.622-14.406,48.622-14.406s-1.576-12.831-.675-19.133c.866-6.062-3.376-18.233-3.376-18.233s14.857-6.3,11.705-12.606-22.51-20.709-30.614-15.757-24.311,0-24.311,0A127.153,127.153,0,0,1,164.8,265.018Z" transform="translate(-129.053 -179.068)" fill="#e6e6e6"/>
    <path id="Path_7" data-name="Path 7" d="M387.331,432.619s25.661,22.06,31.964,17.558-24.311-20.259-24.311-20.259Z" transform="translate(-236.56 -255.954)" fill="#ffb9b9"/>
    <path id="Path_8" data-name="Path 8" d="M176.428,410.876c3.6,4.052,20.709-6.3,18.516-10.9s-15.815,4.6-15.815,4.6S172.826,406.824,176.428,410.876Z" transform="translate(-140.907 -241.864)" fill="#ffb9b9"/>
    <path id="Path_9" data-name="Path 9" d="M148.368,300.5,129.46,335.612s21.61,18.008,24.311,18.458-5.4,12.155-5.4,12.155-24.311-17.108-33.765-25.661,18.008-46.371,18.008-46.371l8.1-4.952Z" transform="translate(-112.622 -192.487)" fill="#e6e6e6"/>
    <path id="Path_10" data-name="Path 10" d="M277.825,297.666l22.06,34.215S333.649,369.7,338.151,371.5s9.9-6.753,9.9-6.753l-40.518-49.072-15.307-27.462-5.853-2.251Z" transform="translate(-187.155 -191.007)" fill="#e6e6e6"/>
    <ellipse id="Ellipse_4" data-name="Ellipse 4" cx="19.037" cy="11.422" rx="19.037" ry="11.422" transform="translate(43.187 23.024)" fill="#2f2e41"/>
    <path id="Path_11" data-name="Path 11" d="M321.365,624.742a2.356,2.356,0,0,0-2.353,2.353V707.36a2.356,2.356,0,0,0,2.353,2.353h273.69a2.356,2.356,0,0,0,2.353-2.353V627.1a2.356,2.356,0,0,0-2.353-2.353Z" transform="translate(-205.737 -343.851)" fill="#e6e6e6"/>
    <path id="Path_12" data-name="Path 12" d="M329.757,708.664h266.6V635.487h-266.6Z" transform="translate(-210.584 -348.699)" fill="#fff"/>
    <path id="Path_13" data-name="Path 13" d="M750.992,741.157a3.9,3.9,0,1,0,0,7.8h15.593a3.9,3.9,0,0,0,0-7.8Z" transform="translate(-398.87 -396.372)" fill="#912f56"/>
    <rect id="Rectangle_6" data-name="Rectangle 6" width="180.001" height="1.026" transform="translate(191.613 337.223)" fill="#e6e6e6"/>
    <circle id="Ellipse_5" data-name="Ellipse 5" cx="22.705" cy="22.705" r="22.705" transform="translate(131.282 300.672)" fill="#912f56"/>
    <path id="Path_14" data-name="Path 14" d="M349.173,572.975l-.569-.853,18.7-12.47,12.826,6.157,18.449-11.787,36.7,15.655L464.51,555.32l28.38,11.505,35.66-31.584.68.768-36.136,32.006L464.55,556.443,435.314,570.8,398.68,555.177l-18.473,11.8-12.815-6.151Z" transform="translate(-157.276 -241.479)" fill="#3f3d56"/>
    <path id="Path_15" data-name="Path 15" d="M465.078,742.134a3.333,3.333,0,1,0,0,6.667H499.95a3.333,3.333,0,1,0,0-6.667Z" transform="translate(-270.132 -396.813)" fill="#e6e6e6"/>
    <path id="Path_16" data-name="Path 16" d="M391.778,683.645h3.548l-7.382,7.306a6.892,6.892,0,0,1-9.677,0l-7.381-7.306h3.548l5.608,5.55a4.365,4.365,0,0,0,6.129,0Zm-17.39,20.315h-3.548l7.427-7.351a6.892,6.892,0,0,1,9.677,0l7.427,7.351h-3.548l-5.654-5.6a4.365,4.365,0,0,0-6.129,0Z" transform="translate(-229.12 -370.425)" fill="#fff"/>
    <path id="Path_17" data-name="Path 17" d="M386.3,156.307a2.356,2.356,0,0,0-2.353,2.353v80.265a2.356,2.356,0,0,0,2.353,2.353H659.99a2.356,2.356,0,0,0,2.353-2.353V158.66a2.356,2.356,0,0,0-2.353-2.353Z" transform="translate(-235.033 -132.512)" fill="#e6e6e6"/>
    <path id="Path_18" data-name="Path 18" d="M394.692,240.229h266.6V167.052h-266.6Z" transform="translate(-239.88 -137.36)" fill="#fff"/>
    <path id="Path_19" data-name="Path 19" d="M815.927,272.722a3.9,3.9,0,1,0,0,7.8H831.52a3.9,3.9,0,0,0,0-7.8Z" transform="translate(-428.166 -185.034)" fill="#912f56"/>
    <rect id="Rectangle_7" data-name="Rectangle 7" width="180.001" height="1.026" transform="translate(227.252 80.127)" fill="#e6e6e6"/>
    <circle id="Ellipse_6" data-name="Ellipse 6" cx="22.705" cy="22.705" r="22.705" transform="translate(166.921 43.575)" fill="#912f56"/>
    <path id="Path_20" data-name="Path 20" d="M414.108,104.539l-.569-.853,18.7-12.47,12.826,6.157,18.449-11.787.249.106,36.451,15.549,29.226-14.357L557.824,98.39l35.66-31.585.68.768L558.029,99.579,529.485,88.007l-29.236,14.362L463.615,86.742l-18.474,11.8-12.815-6.151Z" transform="translate(-186.572 -30.14)" fill="#3f3d56"/>
    <path id="Path_21" data-name="Path 21" d="M530.013,273.7a3.333,3.333,0,1,0,0,6.667h34.872a3.333,3.333,0,0,0,0-6.667Z" transform="translate(-299.428 -185.475)" fill="#e6e6e6"/>
    <path id="Path_22" data-name="Path 22" d="M458.02,219.952c.424-2.841-1.739-4.369-4.7-5.388l.96-3.849-2.344-.584-.934,3.747c-.615-.153-1.248-.3-1.876-.442l.941-3.772-2.342-.584-.96,3.848c-.51-.116-1.01-.231-1.5-.352l0-.012-3.231-.807-.623,2.5s1.738.4,1.7.423a1.246,1.246,0,0,1,1.092,1.363l-1.093,4.385a1.945,1.945,0,0,1,.244.078l-.247-.061-1.533,6.142a.853.853,0,0,1-1.074.557c.023.034-1.7-.425-1.7-.425l-1.163,2.682,3.049.76c.567.142,1.123.291,1.67.431l-.97,3.894,2.34.584.961-3.852c.639.174,1.259.334,1.866.484l-.957,3.834,2.343.584.97-3.886c3.995.756,7,.451,8.263-3.162,1.019-2.909-.05-4.588-2.152-5.683a3.739,3.739,0,0,0,2.991-3.441Zm-5.354,7.506c-.725,2.909-5.623,1.337-7.211.942l1.287-5.157c1.588.4,6.68,1.181,5.925,4.215Zm.724-7.548c-.661,2.646-4.738,1.3-6.061.972l1.166-4.678C449.819,216.535,454.079,217.15,453.391,219.91Z" transform="translate(-259.259 -156.322)" fill="#fff"/>
    <path id="Path_23" data-name="Path 23" d="M582.487,390.524a2.356,2.356,0,0,0-2.353,2.353v80.265a2.356,2.356,0,0,0,2.353,2.353h273.69a2.356,2.356,0,0,0,2.353-2.353V392.878a2.356,2.356,0,0,0-2.353-2.353Z" transform="translate(-323.544 -238.181)" fill="#e6e6e6"/>
    <path id="Path_24" data-name="Path 24" d="M590.878,474.447h266.6V401.27h-266.6Z" transform="translate(-328.392 -243.029)" fill="#fff"/>
    <path id="Path_25" data-name="Path 25" d="M1012.114,506.94a3.9,3.9,0,0,0,0,7.8h15.593a3.9,3.9,0,1,0,0-7.8h-15.593Z" transform="translate(-516.677 -290.703)" fill="#912f56"/>
    <rect id="Rectangle_8" data-name="Rectangle 8" width="180.001" height="1.026" transform="translate(334.927 208.675)" fill="#e6e6e6"/>
    <circle id="Ellipse_7" data-name="Ellipse 7" cx="22.705" cy="22.705" r="22.705" transform="translate(274.596 172.124)" fill="#912f56"/>
    <path id="Path_26" data-name="Path 26" d="M610.294,338.757l-.569-.853,18.7-12.47,12.827,6.157L659.705,319.8l.25.106,36.45,15.549L725.632,321.1l28.379,11.5,35.66-31.584.68.768L754.215,333.8l-28.544-11.572-29.236,14.362L659.8,320.96l-18.475,11.8-12.814-6.151Z" transform="translate(-275.083 -135.809)" fill="#3f3d56"/>
    <path id="Path_27" data-name="Path 27" d="M726.2,507.917a3.333,3.333,0,1,0,0,6.667h34.872a3.333,3.333,0,0,0,0-6.667Z" transform="translate(-387.939 -291.144)" fill="#e6e6e6"/>
    <path id="Path_28" data-name="Path 28" d="M534.133,371.606l9.191-12.944-9.191,5.427h0l-9.186-5.427,9.185,12.944h0Z" transform="translate(-236.834 -161.813)" fill="#fff"/>
    <path id="Path_29" data-name="Path 29" d="M534.132,348.389h0l9.186-5.43-9.186-15.242h0l-9.185,15.242Z" transform="translate(-236.834 -147.852)" fill="#fff"/>
  </g>
</svg>
