<svg id="Layer_1" data-name="Layer 1" xmlns="http://www.w3.org/2000/svg" viewBox="0 0 468 136.14"><defs><style>.cls-1,.cls-3{fill:#361f27;}.cls-1{fill-rule:evenodd;}.cls-2,.cls-3{isolation:isolate;}.cls-3{font-size:75.5px;font-family:Kodchasan-Regular, Kodchasan;}.cls-4{letter-spacing:-0.04em;}.cls-5{letter-spacing:0em;}.cls-6{letter-spacing:-0.02em;}.cls-7{letter-spacing:-0.01em;}</style></defs><path id="blockchain" class="cls-1" d="M120.36,84.2l20.35-11.37V51.45a10.21,10.21,0,0,1-6-3.5L102.05,66.83a10.3,10.3,0,0,1,.18,6.4ZM132.93,45a10.22,10.22,0,1,1,19.17-.07l32.77,18.94c.23-.27.46-.55.72-.81a10.23,10.23,0,1,1,8.58,17.37V118a10.22,10.22,0,1,1-9.26,16.6l-32.81,19a10.23,10.23,0,1,1-19.18-.08l-32.59-18.85A10.22,10.22,0,1,1,91,118V80.42a10.23,10.23,0,1,1,9.35-16.59L133,45Zm17.46,2.89a10.11,10.11,0,0,1-6.15,3.58V72.83L164.55,84.6l18.67-10.79a10.32,10.32,0,0,1-.62-3.52,10.21,10.21,0,0,1,.59-3.42Zm40.66,32.47a10.14,10.14,0,0,1-5.46-2.84,7.1,7.1,0,0,1-.59-.64L166.36,87.65v23l18.71,10.81.51-.56a10.23,10.23,0,0,1,5.46-2.83V80.36Zm-7.84,51.27a10.26,10.26,0,0,1,.07-7.14L165.18,114l-20.93,12.17V147a10.23,10.23,0,0,1,6.15,3.58l32.82-19Zm-48.55,18.9a10.21,10.21,0,0,1,6-3.5V126.1l-21-12.19-17.81,10.3a10.32,10.32,0,0,1,.16,7.46ZM94.13,118.05a10.22,10.22,0,0,1,5.53,2.87c.11.11.21.21.31.33l18.16-10.48V87l-17.48-10.6a8.19,8.19,0,0,1-1,1.14,10.2,10.2,0,0,1-5.54,2.86ZM92.44,77h.23a6.26,6.26,0,1,0-.22,0Zm54.79,75.4a6.69,6.69,0,1,0,2,4.73A6.69,6.69,0,0,0,147.23,152.38Zm0-115.71a6.69,6.69,0,1,0,2,4.73A6.69,6.69,0,0,0,147.23,36.67Zm50.32,86.75a6.68,6.68,0,1,0,2,4.73A6.69,6.69,0,0,0,197.55,123.42Zm-100.38,0a6.68,6.68,0,1,0,2,4.73A6.69,6.69,0,0,0,97.17,123.42Zm89.69-50.11a1.54,1.54,0,0,1,.21.31,1.58,1.58,0,0,1,.16.35,9.6,9.6,0,0,0,.86,1,6.69,6.69,0,1,0-2-4.73A6.89,6.89,0,0,0,186.86,73.31Zm-65.42,37.08a1.9,1.9,0,0,1,.48,1l19,11.16v-22L121.45,88.91Zm41.62-21.18L144.21,100.5v22l18.85-11.14ZM142.47,75.48l-18.39,11,18.49,11.14,18-10.9L142.47,75.48Z" transform="translate(-82.21 -31.18)"/><g id="Fraction" class="cls-2"><text class="cls-3" transform="translate(163.95 97.08)"><tspan class="cls-4">Fr</tspan><tspan class="cls-5" x="71.96" y="0">a</tspan><tspan class="cls-6" x="115.44" y="0">c</tspan><tspan x="157.95" y="0">ti</tspan><tspan class="cls-7" x="210.96" y="0">o</tspan><tspan class="cls-5" x="257.92" y="0">n</tspan></text></g></svg>