<svg id="Group_43" data-name="Group 43" xmlns="http://www.w3.org/2000/svg" width="737.811" height="340.374" viewBox="0 0 737.811 340.374">
  <path id="Path_117" data-name="Path 117" d="M321.393,628.225c-17.666-11.512-30.51-32.207-27.881-53.128a97.151,97.151,0,0,0,59.951,29.238c8.8.88,18.678.944,24.927,7.2,3.888,3.893,5.54,9.584,5.625,15.086s-1.237,10.917-2.551,16.261l.323,1.335C360.715,643.44,339.059,639.738,321.393,628.225Z" transform="translate(-164.924 -306.791)" fill="#f0f0f0"/>
  <path id="Path_118" data-name="Path 118" d="M293.913,575.007a83.038,83.038,0,0,0,32.953,39.042,35.762,35.762,0,0,0,10.242,4.543,20.509,20.509,0,0,0,10.786-.414c3.278-.959,6.521-2.319,9.975-2.465a12.558,12.558,0,0,1,9.483,3.943c3.107,3.132,4.9,7.193,6.523,11.226,1.8,4.478,3.594,9.157,7.255,12.473.444.4-.206,1.067-.649.665-6.37-5.77-7.071-15.027-12.077-21.721-2.336-3.123-5.628-5.562-9.652-5.665-3.519-.09-6.864,1.31-10.175,2.31a21.884,21.884,0,0,1-10.531.8,33.057,33.057,0,0,1-10.378-4.133,80.558,80.558,0,0,1-19.424-16.021,84.509,84.509,0,0,1-15.225-24.334C292.791,574.7,293.689,574.458,293.913,575.007Z" transform="translate(-164.883 -306.705)" fill="#fff"/>
  <path id="Path_119" data-name="Path 119" d="M325.447,621.216a12.458,12.458,0,0,1-15.887,2.8c-.515-.3-.067-1.118.449-.814a11.536,11.536,0,0,0,14.773-2.636C325.161,620.105,325.824,620.757,325.447,621.216Z" transform="translate(-168.41 -316.563)" fill="#fff"/>
  <path id="Path_120" data-name="Path 120" d="M358.789,626.5a24.012,24.012,0,0,0-7.728-15.7c-.442-.4.207-1.068.649-.665a24.977,24.977,0,0,1,8.009,16.354C359.767,627.083,358.837,627.092,358.789,626.5Z" transform="translate(-177.377 -314.32)" fill="#fff"/>
  <path id="Path_121" data-name="Path 121" d="M305.7,594.96a7.052,7.052,0,0,0,2.625-6.155c-.056-.6.873-.6.929-.012a7.9,7.9,0,0,1-2.889,6.816.48.48,0,0,1-.657.008.467.467,0,0,1-.008-.657Z" transform="translate(-167.598 -309.65)" fill="#fff"/>
  <path id="Path_122" data-name="Path 122" d="M366.672,526.285c.046.371.092.743.144,1.118a92.867,92.867,0,0,0,3.126,14.737c.105.374.218.752.334,1.123a97.9,97.9,0,0,0,16.838,31.872,95.07,95.07,0,0,0,9.828,10.589c4.889,4.523,10.549,9.038,13.569,14.744a16.307,16.307,0,0,1,.853,1.83l-15.072,30.9c-.07.053-.132.11-.2.163l-.545,1.261c-.194-.156-.393-.322-.587-.478-.113-.09-.223-.187-.336-.277-.074-.062-.149-.125-.219-.177-.025-.021-.049-.042-.067-.059-.071-.052-.131-.108-.194-.156q-1.666-1.388-3.318-2.805c-.007,0-.007,0-.011-.014a139.805,139.805,0,0,1-22.6-24.116c-.192-.268-.391-.54-.576-.822a90.726,90.726,0,0,1-7.537-12.744,80.207,80.207,0,0,1-3.15-7.479,66.7,66.7,0,0,1-3.919-20.482c-.445-13.936,3.571-27.859,12.922-37.959C366.19,526.792,366.426,526.54,366.672,526.285Z" transform="translate(-177.826 -296.264)" fill="#f0f0f0"/>
  <path id="Path_123" data-name="Path 123" d="M369.885,526.442a83.038,83.038,0,0,0,2.8,51.013,35.758,35.758,0,0,0,5.442,9.793,20.508,20.508,0,0,0,8.861,6.163c3.195,1.208,6.6,2.074,9.448,4.038a12.558,12.558,0,0,1,5.2,8.858c.6,4.371-.415,8.7-1.551,12.89-1.261,4.657-2.644,9.475-1.717,14.327.112.588-.807.728-.919.141-1.612-8.442,3.4-16.255,3.435-24.615.015-3.9-1.145-7.829-4.3-10.334-2.755-2.191-6.269-3.086-9.514-4.282a21.887,21.887,0,0,1-8.889-5.7,33.056,33.056,0,0,1-5.8-9.548,80.561,80.561,0,0,1-5.863-24.487,84.51,84.51,0,0,1,2.495-28.6C369.173,525.523,370.036,525.869,369.885,526.442Z" transform="translate(-180.68 -296.16)" fill="#fff"/>
  <path id="Path_124" data-name="Path 124" d="M367.535,582.928a12.458,12.458,0,0,1-14.372-7.328c-.228-.553.62-.933.848-.38a11.536,11.536,0,0,0,13.383,6.789C367.975,581.869,368.113,582.788,367.535,582.928Z" transform="translate(-177.854 -306.759)" fill="#fff"/>
  <path id="Path_125" data-name="Path 125" d="M390.512,606.624a24.013,24.013,0,0,0,3.282-17.189c-.11-.588.809-.728.919-.141a24.976,24.976,0,0,1-3.452,17.88C390.941,607.68,390.193,607.127,390.512,606.624Z" transform="translate(-185.9 -309.772)" fill="#fff"/>
  <path id="Path_126" data-name="Path 126" d="M366.961,549.924a7.052,7.052,0,0,0,5.8-3.334c.314-.51,1.061.043.749.55a7.9,7.9,0,0,1-6.41,3.7.48.48,0,0,1-.53-.389A.467.467,0,0,1,366.961,549.924Z" transform="translate(-180.753 -300.6)" fill="#fff"/>
  <path id="Path_127" data-name="Path 127" d="M999.281,628.225c17.666-11.512,30.51-32.207,27.881-53.128a97.15,97.15,0,0,1-59.951,29.238c-8.8.881-18.678.944-24.927,7.2-3.888,3.893-5.54,9.584-5.625,15.086s1.237,10.917,2.55,16.261l-.323,1.335C959.959,643.44,981.615,639.738,999.281,628.225Z" transform="translate(-303.697 -306.791)" fill="#f0f0f0"/>
  <path id="Path_128" data-name="Path 128" d="M1027.463,575.007a83.037,83.037,0,0,1-32.953,39.042,35.761,35.761,0,0,1-10.241,4.543,20.508,20.508,0,0,1-10.786-.414c-3.278-.959-6.521-2.319-9.975-2.465a12.558,12.558,0,0,0-9.483,3.943c-3.107,3.132-4.9,7.193-6.523,11.226-1.8,4.478-3.594,9.157-7.255,12.473-.444.4.206,1.067.649.665,6.37-5.77,7.071-15.027,12.077-21.721,2.336-3.123,5.628-5.562,9.652-5.665,3.519-.09,6.864,1.31,10.175,2.31a21.884,21.884,0,0,0,10.531.8,33.058,33.058,0,0,0,10.379-4.133,80.56,80.56,0,0,0,19.424-16.021,84.515,84.515,0,0,0,15.225-24.334c.226-.552-.672-.8-.9-.247Z" transform="translate(-304.44 -306.705)" fill="#fff"/>
  <path id="Path_129" data-name="Path 129" d="M1015.745,621.216a12.458,12.458,0,0,0,15.887,2.8c.515-.3.067-1.118-.449-.814a11.536,11.536,0,0,1-14.773-2.636C1016.031,620.105,1015.367,620.757,1015.745,621.216Z" transform="translate(-320.729 -316.563)" fill="#fff"/>
  <path id="Path_130" data-name="Path 130" d="M984.443,626.5a24.014,24.014,0,0,1,7.728-15.7c.442-.4-.207-1.068-.649-.665a24.976,24.976,0,0,0-8.009,16.354C983.465,627.083,984.395,627.092,984.443,626.5Z" transform="translate(-313.802 -314.32)" fill="#fff"/>
  <path id="Path_131" data-name="Path 131" d="M1038.931,594.96a7.052,7.052,0,0,1-2.625-6.155c.056-.6-.873-.6-.929-.012a7.9,7.9,0,0,0,2.889,6.816.48.48,0,0,0,.657.008.467.467,0,0,0,.008-.657Z" transform="translate(-324.981 -309.65)" fill="#fff"/>
  <path id="Path_132" data-name="Path 132" d="M962.932,526.285c-.046.371-.092.743-.144,1.118a92.847,92.847,0,0,1-3.126,14.737c-.105.374-.218.752-.334,1.123a97.9,97.9,0,0,1-16.838,31.872,95.072,95.072,0,0,1-9.828,10.589c-4.889,4.523-10.549,9.038-13.569,14.744a16.322,16.322,0,0,0-.853,1.83l15.072,30.9c.07.053.132.11.2.163l.545,1.261c.194-.156.393-.322.587-.478.113-.09.223-.187.336-.277.074-.062.149-.125.219-.177.025-.021.049-.042.067-.059.071-.052.131-.108.194-.156q1.666-1.388,3.318-2.805c.007,0,.007,0,.011-.014a139.807,139.807,0,0,0,22.6-24.116c.192-.268.391-.54.576-.822a90.7,90.7,0,0,0,7.537-12.744,80.231,80.231,0,0,0,3.15-7.479,66.7,66.7,0,0,0,3.919-20.482c.446-13.936-3.571-27.859-12.922-37.959C963.415,526.792,963.179,526.54,962.932,526.285Z" transform="translate(-299.726 -296.264)" fill="#f0f0f0"/>
  <path id="Path_133" data-name="Path 133" d="M965.984,526.442a83.038,83.038,0,0,1-2.8,51.013,35.759,35.759,0,0,1-5.442,9.794,20.509,20.509,0,0,1-8.861,6.163c-3.195,1.208-6.6,2.074-9.448,4.038a12.558,12.558,0,0,0-5.2,8.858c-.6,4.371.415,8.7,1.551,12.89,1.26,4.657,2.644,9.475,1.717,14.327-.112.588.807.728.919.141,1.612-8.442-3.4-16.255-3.435-24.615-.015-3.9,1.145-7.829,4.3-10.334,2.755-2.191,6.269-3.086,9.515-4.282a21.889,21.889,0,0,0,8.889-5.7,33.058,33.058,0,0,0,5.8-9.548,80.561,80.561,0,0,0,5.863-24.487,84.514,84.514,0,0,0-2.495-28.6C966.7,525.523,965.833,525.869,965.984,526.442Z" transform="translate(-303.136 -296.16)" fill="#fff"/>
  <path id="Path_134" data-name="Path 134" d="M974.055,582.928a12.458,12.458,0,0,0,14.372-7.328c.228-.553-.62-.933-.849-.38A11.536,11.536,0,0,1,974.2,582.01C973.614,581.869,973.477,582.788,974.055,582.928Z" transform="translate(-311.683 -306.759)" fill="#fff"/>
  <path id="Path_135" data-name="Path 135" d="M953.851,606.624a24.012,24.012,0,0,1-3.282-17.189c.11-.588-.809-.728-.919-.141a24.977,24.977,0,0,0,3.452,17.88C953.422,607.68,954.17,607.127,953.851,606.624Z" transform="translate(-306.41 -309.772)" fill="#fff"/>
  <path id="Path_136" data-name="Path 136" d="M976.762,549.924a7.052,7.052,0,0,1-5.8-3.334c-.314-.51-1.061.043-.749.55a7.9,7.9,0,0,0,6.41,3.7.48.48,0,0,0,.53-.389A.467.467,0,0,0,976.762,549.924Z" transform="translate(-310.918 -300.6)" fill="#fff"/>
  <path id="Path_137" data-name="Path 137" d="M370.582,506.643a5.336,5.336,0,0,1-1.266-8.084l-9.4-16.47,9.833.635,7.416,15.543a5.365,5.365,0,0,1-6.587,8.376Z" transform="translate(-179.319 -286.733)" fill="#ffb6b6"/>
  <path id="Path_138" data-name="Path 138" d="M151.623,416.628h6.506l3.1-25.093h-9.6Z" transform="translate(-32.699 -84.438)" fill="#ffb6b6"/>
  <path id="Path_139" data-name="Path 139" d="M279.17,653.839h12.812A8.165,8.165,0,0,1,300.147,662v.266H279.17Z" transform="translate(-161.905 -323.772)" fill="#2f2e41"/>
  <path id="Path_140" data-name="Path 140" d="M208.454,416.628h6.505l3.095-25.093h-9.6Z" transform="translate(-44.954 -84.438)" fill="#ffb6b6"/>
  <path id="Path_141" data-name="Path 141" d="M336,653.839h12.812A8.165,8.165,0,0,1,356.977,662v.266H336Z" transform="translate(-174.161 -323.772)" fill="#2f2e41"/>
  <path id="Path_142" data-name="Path 142" d="M342.178,482.991s1.789,25.482-1.735,38.316-4.154,90.444-4.154,90.444H324.476L314.238,506.107l-23.6,106.016-11.252-.774,6.171-124.926Z" transform="translate(-161.951 -286.928)" fill="#2f2e41"/>
  <path id="Path_143" data-name="Path 143" d="M290.159,371.661l9.031-6.59,15.133,3.3,4.1,9.733,7.058,3.5A16,16,0,0,1,334.2,393.64l10.084,69.634-59.011-2.281-7.144-82.008a6.429,6.429,0,0,1,6.032-6.976Z" transform="translate(-161.676 -261.497)" fill="#3f3d56"/>
  <path id="Path_144" data-name="Path 144" d="M213.6,160.059l5.45,7.347,23.739,72.4-11.127,4.455-17.818-33.738Z" transform="translate(-46.065 -34.518)" fill="#3f3d56"/>
  <circle id="Ellipse_13" data-name="Ellipse 13" cx="13.18" cy="13.18" r="13.18" transform="translate(134.598 73.773)" fill="#ffb9b9"/>
  <path id="Path_145" data-name="Path 145" d="M151.778,180l21.508,29.915,24.042,15.677Z" transform="translate(-32.732 -38.818)" opacity="0.1"/>
  <path id="Path_146" data-name="Path 146" d="M306.691,348.764c-.917-1.83-1.86-3.823-1.51-5.84s2.665-3.774,4.451-2.774c.741-2.679,4.022-3.851,6.784-3.542s5.3,1.641,8.025,2.213,6.023.118,7.492-2.24l-3.517-.061,3.662-4.248-4.245-.318c1.47-1.587,1.08-4.283-.344-5.913a10.474,10.474,0,0,0-5.692-2.888,31.71,31.71,0,0,0-12.818-.295,16.664,16.664,0,0,0-5.695,1.982,11.331,11.331,0,0,0-3.981,4.129,13.63,13.63,0,0,0-1.618,6.211,17.369,17.369,0,0,0,7.653,14.775" transform="translate(-165.897 -252.283)" fill="#2f2e41"/>
  <path id="Path_147" data-name="Path 147" d="M818,571.854H408.978a15.906,15.906,0,0,1-15.888-15.888V248.906a15.906,15.906,0,0,1,15.888-15.888H818a15.906,15.906,0,0,1,15.888,15.888v307.06A15.906,15.906,0,0,1,818,571.854Z" transform="translate(-186.473 -233.019)" fill="#e4e4e4"/>
  <path id="Path_148" data-name="Path 148" d="M782.991,406.3h-63.14a11.765,11.765,0,1,1,0-23.53h63.14a11.765,11.765,0,0,1,0,23.53Z" transform="translate(-254.405 -265.314)" fill="#fff"/>
  <path id="Path_149" data-name="Path 149" d="M727.8,451.4H712.9a4.314,4.314,0,0,1,0-8.628h14.9a4.314,4.314,0,0,1,0,8.628Z" transform="translate(-254.512 -278.253)" fill="#fff"/>
  <path id="Path_150" data-name="Path 150" d="M806.8,451.4H791.9a4.314,4.314,0,0,1,0-8.628h14.9a4.314,4.314,0,0,1,0,8.628Z" transform="translate(-271.549 -278.253)" fill="#fff"/>
  <path id="Path_151" data-name="Path 151" d="M766.8,451.4H751.9a4.314,4.314,0,0,1,0-8.628h14.9a4.314,4.314,0,1,1,0,8.628Z" transform="translate(-262.923 -278.253)" fill="#fff"/>
  <path id="Path_152" data-name="Path 152" d="M727.8,472.4H712.9a4.314,4.314,0,1,1,0-8.628h14.9a4.314,4.314,0,0,1,0,8.628Z" transform="translate(-254.512 -282.782)" fill="#fff"/>
  <path id="Path_153" data-name="Path 153" d="M806.8,472.4H791.9a4.314,4.314,0,0,1,0-8.628h14.9a4.314,4.314,0,0,1,0,8.628Z" transform="translate(-271.549 -282.782)" fill="#fff"/>
  <path id="Path_154" data-name="Path 154" d="M766.8,472.4H751.9a4.314,4.314,0,0,1,0-8.628h14.9a4.314,4.314,0,1,1,0,8.628Z" transform="translate(-262.923 -282.782)" fill="#fff"/>
  <path id="Path_155" data-name="Path 155" d="M727.8,493.4H712.9a4.314,4.314,0,0,1,0-8.628h14.9a4.314,4.314,0,0,1,0,8.628Z" transform="translate(-254.512 -287.311)" fill="#fff"/>
  <path id="Path_156" data-name="Path 156" d="M806.8,493.4H791.9a4.314,4.314,0,0,1,0-8.628h14.9a4.314,4.314,0,0,1,0,8.628Z" transform="translate(-271.549 -287.311)" fill="#fff"/>
  <path id="Path_157" data-name="Path 157" d="M766.8,493.4H751.9a4.314,4.314,0,0,1,0-8.628h14.9a4.314,4.314,0,1,1,0,8.628Z" transform="translate(-262.923 -287.311)" fill="#fff"/>
  <path id="Path_158" data-name="Path 158" d="M727.8,514.4H712.9a4.314,4.314,0,0,1,0-8.628h14.9a4.314,4.314,0,0,1,0,8.628Z" transform="translate(-254.512 -291.84)" fill="#fff"/>
  <path id="Path_159" data-name="Path 159" d="M806.8,514.4H791.9a4.314,4.314,0,0,1,0-8.628h14.9a4.314,4.314,0,0,1,0,8.628Z" transform="translate(-271.549 -291.84)" fill="#fff"/>
  <path id="Path_160" data-name="Path 160" d="M766.8,514.4H751.9a4.314,4.314,0,0,1,0-8.628h14.9a4.314,4.314,0,1,1,0,8.628Z" transform="translate(-262.923 -291.84)" fill="#fff"/>
  <circle id="Ellipse_14" data-name="Ellipse 14" cx="40.001" cy="40.001" r="40.001" transform="translate(332.501 125.298)" fill="#cacaca"/>
  <path id="Path_161" data-name="Path 161" d="M601.352,479.311a11.778,11.778,0,0,1-11.765-11.765V393.034a11.765,11.765,0,1,1,23.53,0v74.512a11.778,11.778,0,0,1-11.765,11.765Z" transform="translate(-228.849 -264.99)" fill="#fff"/>
  <path id="Path_162" data-name="Path 162" d="M734.372,405.465H723.391a1.569,1.569,0,1,1,0-3.137h10.981a1.569,1.569,0,1,1,0,3.137Z" transform="translate(-257.367 -269.532)" fill="#e4e4e4"/>
  <path id="Path_163" data-name="Path 163" d="M756.372,405.965H745.391a1.569,1.569,0,1,1,0-3.137h10.981a1.569,1.569,0,1,1,0,3.137Z" transform="translate(-262.111 -269.64)" fill="#e4e4e4"/>
  <path id="Path_164" data-name="Path 164" d="M778.372,406.465H767.391a1.569,1.569,0,0,1,0-3.137h10.981a1.569,1.569,0,0,1,0,3.137Z" transform="translate(-266.856 -269.747)" fill="#e4e4e4"/>
  <path id="Path_165" data-name="Path 165" d="M800.372,406.965H789.391a1.569,1.569,0,1,1,0-3.137h10.981a1.569,1.569,0,1,1,0,3.137Z" transform="translate(-271.6 -269.855)" fill="#e4e4e4"/>
  <path id="Path_166" data-name="Path 166" d="M455,533.245a14.662,14.662,0,0,0,4.361,10.44h-6.479a14.557,14.557,0,0,1-14.557-14.557V293.134a14.557,14.557,0,0,1,14.557-14.557h9.429A14.7,14.7,0,0,0,455,291.284Z" transform="translate(-196.228 -242.844)" fill="#cacaca"/>
  <path id="Path_167" data-name="Path 167" d="M866.539,666.467H130.6a.934.934,0,0,1,0-1.868H866.539a.934.934,0,0,1,0,1.868Z" transform="translate(-129.662 -326.093)" fill="#cacaca"/>
  <path id="Path_168" data-name="Path 168" d="M432.835,362.846q-7.435-2.082-14.926-3.859a426.332,426.332,0,0,0-51.837-9.036,11.6,11.6,0,0,0-14.142,8.165l-8.714,32.158a11.59,11.59,0,0,0,8.149,14.2l.117.024c11.53,1.31,23.17,3.13,34.746,5.451,1.036.2,2.063.416,3.1.635q5.565,1.153,11.1,2.463c1.616.376,3.224.769,4.839,1.169q6.518,1.624,13.044,3.459,7.259,2.047,14.526,4.369c.526.157,1.051.322,1.569.494V363.294C433.886,363.137,433.36,362.988,432.835,362.846Z" transform="translate(-175.63 -258.154)" fill="#fff"/>
  <path id="Path_169" data-name="Path 169" d="M432.835,362.846q-7.435-2.082-14.926-3.859a426.332,426.332,0,0,0-51.837-9.036,11.6,11.6,0,0,0-14.142,8.165l-8.714,32.158a11.59,11.59,0,0,0,8.149,14.2l.117.024c11.53,1.31,23.17,3.13,34.746,5.451,1.036.2,2.063.416,3.1.635q5.565,1.153,11.1,2.463c1.616.376,3.224.769,4.839,1.169q6.518,1.624,13.044,3.459,7.259,2.047,14.526,4.369c.526.157,1.051.322,1.569.494v-1.655c-.525-.165-1.051-.329-1.569-.494q-6.682-2.13-13.349-4.008-2.494-.718-4.989-1.388-4.494-1.212-8.965-2.322-2.376-.6-4.745-1.153c-.118-.031-.243-.055-.361-.086q-4.036-.953-8.087-1.82c-1.035-.22-2.07-.439-3.106-.651-12.487-2.588-25.068-4.6-37.515-6.016a10.021,10.021,0,0,1-6.988-12.259l8.714-32.166a10.014,10.014,0,0,1,12.275-7.036l.118.016a424.944,424.944,0,0,1,51.186,8.879c.172.047.345.086.517.125q7.671,1.835,15.295,3.969c.518.141,1.043.29,1.569.447v-1.631C433.886,363.137,433.36,362.988,432.835,362.846Z" transform="translate(-175.63 -258.154)" fill="#912f56"/>
  <path id="Path_170" data-name="Path 170" d="M449.931,366.909v57.6c-.525-.173-1.043-.337-1.569-.5q-6.953-2.224-13.953-4.188-6.718-1.906-13.483-3.584c-1.6-.392-3.193-.777-4.793-1.153-.063-.282-.126-.565-.18-.847-.29-1.349-.517-2.714-.69-4.086-.079-.526-.133-1.051-.188-1.584a54.172,54.172,0,0,1,17.475-45.382c.227-.22.463-.431.7-.635q7.6,1.812,15.114,3.922C448.888,366.6,449.414,366.752,449.931,366.909Z" transform="translate(-191.158 -260.953)" fill="#912f56"/>
  <path id="Path_171" data-name="Path 171" d="M385.372,397.459l-21.813-2.573a5.884,5.884,0,0,0-1.38,11.687l21.812,2.573a5.884,5.884,0,1,0,1.381-11.687Zm3.592,6.353a4.318,4.318,0,0,1-4.793,3.773l-21.812-2.573a4.312,4.312,0,1,1,1.012-8.565l21.813,2.573a4.33,4.33,0,0,1,3.781,4.792Z" transform="translate(-178.686 -267.918)" fill="#912f56"/>
  <path id="Path_172" data-name="Path 172" d="M453.028,384.708v27.319a12.782,12.782,0,0,1-1.569.8,15.818,15.818,0,0,1-17.13-2.777c-.22-.2-.439-.408-.651-.628s-.415-.439-.612-.667A15.833,15.833,0,0,1,451.459,383.9a16.364,16.364,0,0,1,1.569.808Z" transform="translate(-194.255 -265.261)" fill="#fff"/>
  <path id="Path_173" data-name="Path 173" d="M434.56,410.429q-9.259,1.929-18.393,4.275-3.412.871-6.8,1.8-4.047,1.118-8.095,2.314-5.165,1.53-10.314,3.2c-1,.329-2,.659-3,.988-9.545,3.184-19.028,6.714-28.354,10.565a11.6,11.6,0,0,0-8.463,13.969L359,479.922a11.592,11.592,0,0,0,13.984,8.518l.11-.039A418.691,418.691,0,0,1,420.1,472.306q7.153-1.988,14.455-3.749c.526-.125,1.043-.251,1.569-.369v-58.08C435.6,410.2,435.085,410.312,434.56,410.429Z" transform="translate(-177.355 -271.21)" fill="#fff"/>
  <path id="Path_174" data-name="Path 174" d="M434.56,410.429q-9.259,1.929-18.393,4.275-3.412.871-6.8,1.8-4.047,1.118-8.095,2.314-5.165,1.53-10.314,3.2c-1,.329-2,.659-3,.988-9.545,3.184-19.028,6.714-28.354,10.565a11.6,11.6,0,0,0-8.463,13.969L359,479.922a11.592,11.592,0,0,0,13.984,8.518l.11-.039A418.692,418.692,0,0,1,420.1,472.306q7.153-1.988,14.455-3.749c.526-.125,1.043-.251,1.569-.369v-1.616l-1.569.376-1.184.282q-6.918,1.682-13.687,3.561c-.118.031-.243.071-.361.1a418.346,418.346,0,0,0-46.77,16.04,10.03,10.03,0,0,1-12.032-7.381l-7.859-32.378a10.018,10.018,0,0,1,7.357-12.087l.118-.039c10.157-4.2,20.495-8.016,30.911-11.4,1-.33,2.008-.651,3.012-.973q3.694-1.165,7.4-2.267,3.906-1.165,7.8-2.243l.518-.141q3.812-1.047,7.647-2.024,8.506-2.165,17.13-3.977c.518-.11,1.043-.22,1.569-.322v-1.592C435.6,410.2,435.085,410.312,434.56,410.429Z" transform="translate(-177.355 -271.21)" fill="#912f56"/>
  <path id="Path_175" data-name="Path 175" d="M451.395,411.118V467.6c-.517.118-1.043.235-1.569.361q-7.365,1.788-14.667,3.812-.294-.329-.565-.659a54.214,54.214,0,0,1-12.338-43.617c.039-.259.087-.526.134-.784s.086-.51.133-.761a53.732,53.732,0,0,1,2.008-7.569c.1-.3.2-.6.314-.894q3.588-.988,7.2-1.9,8.836-2.282,17.781-4.149C450.344,411.322,450.869,411.22,451.395,411.118Z" transform="translate(-192.621 -271.428)" fill="#912f56"/>
  <path id="Path_176" data-name="Path 176" d="M404.4,475.339a5.89,5.89,0,0,0-7.663-3.239l-20.354,8.251a5.883,5.883,0,0,0,4.424,10.9L401.164,483A5.9,5.9,0,0,0,404.4,475.339Zm-3.827,6.2L380.222,489.8a4.317,4.317,0,1,1-3.247-8l20.354-8.251a4.313,4.313,0,1,1,3.247,7.992Z" transform="translate(-182.079 -284.486)" fill="#912f56"/>
  <path id="Path_177" data-name="Path 177" d="M454.193,429.381v30.754a15.34,15.34,0,0,1-1.569.314A15.848,15.848,0,0,1,438.1,434.793c.18-.227.368-.447.573-.659.188-.22.392-.431.6-.635a15.842,15.842,0,0,1,13.349-4.424A13.5,13.5,0,0,1,454.193,429.381Z" transform="translate(-195.42 -275.267)" fill="#fff"/>
  <path id="Path_178" data-name="Path 178" d="M457.587,342.467v78.285c.526-.173,1.051-.337,1.569-.494V343.181C458.63,342.938,458.112,342.7,457.587,342.467Zm0,0v78.285c.526-.173,1.051-.337,1.569-.494V343.181C458.63,342.938,458.112,342.7,457.587,342.467Zm0,0v78.285c.526-.173,1.051-.337,1.569-.494V343.181C458.63,342.938,458.112,342.7,457.587,342.467Zm0,5.718v90.207c.526-.126,1.051-.243,1.569-.361v-89.4C458.63,348.475,458.1,348.326,457.587,348.185Zm0,0v90.207c.526-.126,1.051-.243,1.569-.361v-89.4C458.63,348.475,458.1,348.326,457.587,348.185Zm0,0v90.207c.526-.126,1.051-.243,1.569-.361v-89.4C458.63,348.475,458.1,348.326,457.587,348.185Zm0,0v90.207c.526-.126,1.051-.243,1.569-.361v-89.4C458.63,348.475,458.1,348.326,457.587,348.185Zm0,0v91.023c.526-.125,1.043-.251,1.569-.369V348.632C458.63,348.475,458.1,348.326,457.587,348.185Zm342.169-74.167H473.87A16.31,16.31,0,0,0,457.587,290.3V532.262a16.3,16.3,0,0,0,16.283,16.275H799.755a16.3,16.3,0,0,0,16.275-16.275V290.3a16.3,16.3,0,0,0-16.275-16.283Zm14.706,258.244a14.722,14.722,0,0,1-14.706,14.706H473.87a14.728,14.728,0,0,1-14.714-14.706V290.3a14.736,14.736,0,0,1,14.714-14.714H799.755A14.723,14.723,0,0,1,814.462,290.3ZM457.587,348.185V437.6l1.569-.377V348.632C458.63,348.475,458.1,348.326,457.587,348.185Zm0,0v90.207c.526-.126,1.051-.243,1.569-.361v-89.4C458.63,348.475,458.1,348.326,457.587,348.185Zm0,0v90.207c.526-.126,1.051-.243,1.569-.361v-89.4C458.63,348.475,458.1,348.326,457.587,348.185Zm0,0v90.207c.526-.126,1.051-.243,1.569-.361v-89.4C458.63,348.475,458.1,348.326,457.587,348.185Zm0-5.718v78.285c.526-.173,1.051-.337,1.569-.494V343.181C458.63,342.938,458.112,342.7,457.587,342.467Zm0,0v78.285c.526-.173,1.051-.337,1.569-.494V343.181C458.63,342.938,458.112,342.7,457.587,342.467Z" transform="translate(-200.382 -241.861)" fill="#2f2e41"/>
  <path id="Path_179" data-name="Path 179" d="M362.029,463.068a5.336,5.336,0,0,0-7.836-2.356l-15.036-11.554-.711,9.828,14.388,9.465a5.365,5.365,0,0,0,9.195-5.384Z" transform="translate(-174.688 -279.631)" fill="#ffb6b6"/>
  <path id="Path_180" data-name="Path 180" d="M288.483,377.352l-4.948-2.338s-7.971,2.242-4.1,12.782l23.436,43.659,28.612,16.751,8.92-7.9-28.632-22.655Z" transform="translate(-161.733 -263.641)" fill="#3f3d56"/>
</svg>
