<svg id="visual" viewBox="0 0 900 675" width="900" height="675" xmlns="http://www.w3.org/2000/svg" xmlns:xlink="http://www.w3.org/1999/xlink" version="1.1"><rect x="0" y="0" width="900" height="675" fill="#ffffff"></rect><path d="M564 675L558.2 646.8C552.3 618.7 540.7 562.3 525.5 506.2C510.3 450 491.7 394 496.5 337.8C501.3 281.7 529.7 225.3 536.8 169C544 112.7 530 56.3 523 28.2L516 0L900 0L900 28.2C900 56.3 900 112.7 900 169C900 225.3 900 281.7 900 337.8C900 394 900 450 900 506.2C900 562.3 900 618.7 900 646.8L900 675Z" fill="#521945" stroke-linecap="round" stroke-linejoin="miter"></path></svg>